<?xml version="1.0" encoding="UTF-8"?>
<svg id="Layer_1" data-name="Layer 1" xmlns="http://www.w3.org/2000/svg" viewBox="0 0 513 513">
  <defs>
    <style>
      .cls-1 {
        fill: #fff;
      }

      .cls-2 {
        fill: #6e2af5;
        stroke: #000;
        stroke-miterlimit: 10;
      }
    </style>
  </defs>
  <rect class="cls-2" x=".5" y=".5" width="512" height="512"/>
  <path class="cls-1" d="m389.82,415.96c-4.22-4.25-8.2-8.24-12.52-12.6,36.28-38.39,53.18-83.89,47.73-136.54-4.72-45.63-25.2-83.34-60.85-112.7-64.6-53.2-159.6-51.25-221.05,4.75-35.57,32.41-54.64,72.58-56.07,120.73-1.43,48.1,15.42,89.28,48.64,124.26-4.24,4.13-8.26,8.05-12.28,11.96-41.8-37.89-67.55-108.56-48.53-179.79,20.41-76.45,86.57-132.13,164.94-138.34,95.31-7.54,164.35,50.35,191.02,116.84,29.56,73.69,8.83,152.98-41.03,201.41Z"/>
  <path class="cls-1" d="m360.44,386.63c-3.98-4.15-7.98-8.32-11.99-12.5,57.74-61.72,39.78-146.53-9.28-187.41-50.77-42.31-124.9-38.48-170.21,4.29-51.21,48.35-55.6,129.81-3.94,183.66-3.52,3.52-6.94,7.21-10.65,10.59-3.05,2.78-4.65-.5-6.18-2.16-11.62-12.64-20.8-26.86-27.3-42.78-34.28-83.86,14.62-177.88,103.11-198.24,79.19-18.21,158.97,32.28,175.39,111.69,10.29,49.76-2.66,93.58-36.69,131.28-.37.41-.73.82-1.16,1.15-.27.21-.65.26-1.09.42Z"/>
  <path class="cls-1" d="m331.29,357.48c-4.28-4.13-8.31-8.02-12.68-12.24,18.05-20.1,26.86-43.27,24.02-70.01-2.46-23.16-12.84-42.52-30.97-57.31-34.26-27.94-83.34-26.06-115.32,4.33-29.74,28.26-39.87,81.06-2.45,122.89-4.32,3.7-8.69,7.43-13.13,11.23-32-28.16-43.25-91.66-6.27-137.45,39.02-48.31,110.96-52.54,155.7-9.01,42.71,41.55,39.87,109.65,1.1,147.58Z"/>
  <path class="cls-1" d="m301.81,328.4c-4.07-4.34-7.91-8.43-11.8-12.56,16.47-27.89,15.05-49.73-4.42-66.07-16.43-13.79-42.04-13.78-58.3.03-19.4,16.47-20.85,38.52-4.05,66.8-4.07,3.65-8.26,7.39-12.5,11.18-13.81-9.07-21.66-37.81-15.79-59.41,6.98-25.66,28.37-44.14,53.8-46.77,34.29-3.54,57.13,16.37,66.59,38.96,9.55,22.79,3.6,53.04-13.54,67.85Z"/>
</svg>