<?xml version="1.0" encoding="UTF-8"?><svg id="Layer_1" xmlns="http://www.w3.org/2000/svg" xmlns:xlink="http://www.w3.org/1999/xlink" viewBox="0 0 888.38 329.75"><defs><style>.cls-1{fill:url(#linear-gradient);}.cls-2{fill:#fff;opacity:.2;}.cls-3{fill:url(#linear-gradient-3);}.cls-4{fill:url(#linear-gradient-4);}.cls-5{fill:url(#linear-gradient-2);}.cls-6{fill:url(#linear-gradient-5);}</style><linearGradient id="linear-gradient" x1="133.17" y1="287.43" x2="129.4" y2="77.1" gradientUnits="userSpaceOnUse"><stop offset="0" stop-color="#1b35bd"/><stop offset="1" stop-color="#c82586"/></linearGradient><linearGradient id="linear-gradient-2" x1="132.09" y1="287.45" x2="128.31" y2="77.12" xlink:href="#linear-gradient"/><linearGradient id="linear-gradient-3" x1="190.85" y1="286.39" x2="187.07" y2="76.07" xlink:href="#linear-gradient"/><linearGradient id="linear-gradient-4" x1="69.86" y1="288.56" x2="66.09" y2="78.24" xlink:href="#linear-gradient"/><linearGradient id="linear-gradient-5" x1="117.36" y1="287.71" x2="113.58" y2="77.39" xlink:href="#linear-gradient"/></defs><g><polygon class="cls-1" points="129.47 27.67 8.76 81.18 129.47 134.7 250.18 81.18 129.47 27.67"/><polygon class="cls-2" points="129.47 85.82 74.34 110.26 129.47 134.7 184.6 110.26 129.47 85.82"/><polygon class="cls-5" points="129.47 157.39 51.31 122.74 8.76 141.6 129.47 195.12 250.18 141.6 207.64 122.74 129.47 157.39"/><polygon class="cls-3" points="129.47 218.66 129.47 256.39 250.18 202.87 207.64 184.01 129.47 218.66"/><polygon class="cls-4" points="129.47 254.86 51.31 220.2 8.76 239.06 129.47 292.58 129.47 254.86"/><polygon class="cls-6" points="129.31 302.08 117.4 290.01 105.32 301.92 105.48 277.93 129.47 278.09 129.31 302.08"/></g><g><path d="M354.05,222.21c-7.82,0-15.17-1.42-22.05-4.28-6.87-2.85-12.8-6.9-17.77-12.15-4.97-5.25-8.69-11.46-11.15-18.61l21.29-9.56c3.13,6.82,7.46,12.18,12.99,16.09,5.53,3.91,11.65,5.87,18.36,5.87,3.58,0,6.65-.56,9.22-1.68,2.57-1.12,4.58-2.65,6.04-4.61,1.45-1.95,2.18-4.27,2.18-6.96,0-2.91-.9-5.39-2.68-7.46-1.79-2.07-4.58-3.71-8.38-4.95l-24.48-8.05c-9.95-3.24-17.44-7.85-22.46-13.83-5.03-5.98-7.54-13.16-7.54-21.54,0-7.38,1.82-13.86,5.45-19.45,3.63-5.59,8.72-9.95,15.26-13.08,6.54-3.13,14.05-4.69,22.55-4.69,7.49,0,14.42,1.29,20.79,3.86,6.37,2.57,11.87,6.2,16.51,10.9,4.64,4.69,8.13,10.34,10.48,16.93l-21.12,9.56c-2.35-5.81-5.87-10.37-10.56-13.66-4.69-3.3-10.06-4.95-16.09-4.95-3.47,0-6.54,.56-9.22,1.68-2.68,1.12-4.75,2.71-6.2,4.78-1.45,2.07-2.18,4.44-2.18,7.12,0,2.91,.95,5.45,2.85,7.63,1.9,2.18,4.75,3.88,8.55,5.11l23.97,7.71c10.06,3.24,17.57,7.77,22.55,13.58,4.97,5.81,7.46,12.91,7.46,21.29,0,7.27-1.9,13.72-5.7,19.36-3.8,5.65-9.03,10.06-15.68,13.24-6.65,3.19-14.39,4.78-23.22,4.78Z"/><path d="M412.89,220.2V95.3h47.95c8.6,0,16.23,1.51,22.88,4.53,6.65,3.02,11.87,7.49,15.68,13.41,3.8,5.92,5.7,13.24,5.7,21.96s-1.93,15.7-5.78,21.63c-3.86,5.93-9.11,10.42-15.76,13.5-6.65,3.08-14.22,4.61-22.72,4.61h-21.96v45.27h-25.99Zm25.99-67.9h22.13c3.69,0,6.87-.73,9.56-2.18,2.68-1.45,4.78-3.46,6.29-6.04,1.51-2.57,2.26-5.53,2.26-8.89s-.75-6.48-2.26-9.05c-1.51-2.57-3.6-4.58-6.29-6.04-2.68-1.45-5.87-2.18-9.56-2.18h-22.13v34.37Z"/><path d="M494.87,220.2l42.25-124.9h34.54l42.25,124.9h-28.33l-8.38-25.48h-45.77l-8.38,25.48h-28.17Zm43.76-48.12h31.35l-19.11-59.01h7.04l-19.28,59.01Z"/><path d="M632.68,220.2l-32.69-124.9h28.17l24.65,104.61h-7.54l25.99-104.61h26.82l25.99,104.61h-7.54l24.65-104.61h28.17l-32.69,124.9h-30.18l-26.15-100.59h8.72l-26.15,100.59h-30.18Z"/><path d="M778.03,220.2V95.3h19.95l67.06,88.35-10.73,2.51V95.3h25.99v124.9h-20.12l-65.89-89.02,9.72-2.51v91.54h-25.99Z"/></g></svg>