<svg width="1000" height="132" viewBox="0 0 1000 132" fill="none" xmlns="http://www.w3.org/2000/svg">
<path d="M77.7719 15.2134V38.8861C77.7719 60.3623 60.362 77.7721 38.8859 77.7721C36.3283 77.7721 33.8303 77.518 31.4106 77.0464V92.2602H70.2966C91.7728 92.2602 109.183 74.8504 109.183 53.3742C109.183 34.4556 95.6705 18.6999 77.7719 15.2134Z" fill="#5BC682"/>
<path d="M44.0118 131.67C52.6893 131.67 59.7238 124.636 59.7238 115.958C59.7238 107.281 52.6893 100.246 44.0118 100.246C35.3343 100.246 28.2998 107.281 28.2998 115.958C28.2998 124.636 35.3343 131.67 44.0118 131.67Z" fill="#5BC682"/>
<path d="M38.886 77.7721C60.3622 77.7721 77.772 60.3622 77.772 38.8861V15.2134V0H0V38.886C0 57.8042 13.5125 73.5602 31.4107 77.0463C33.8305 77.518 36.3284 77.7721 38.886 77.7721Z" fill="white"/>
<path d="M155.961 15.2134V59.9002C155.961 76.0442 162.528 84.1155 175.664 84.1155C188.943 84.1155 195.585 76.0442 195.585 59.9002V15.2134H205.161V59.3502C205.161 70.3571 202.646 78.7045 197.622 84.3901C192.595 90.078 185.275 92.9208 175.664 92.9208C166.05 92.9208 158.768 90.078 153.815 84.3901C148.862 78.7044 146.385 70.357 146.385 59.3502V15.2134H155.961Z" fill="white"/>
<path d="M257.148 41.6295C261.293 45.74 263.367 52.1956 263.367 61.001V92.2601H254.342V61.5517C254.342 55.756 253.037 51.3343 250.435 48.2887C247.829 45.2446 244.068 43.7203 239.153 43.7203C233.869 43.7203 229.723 45.5559 226.715 49.2241C223.705 52.8938 222.202 57.8828 222.202 64.1933V92.2601H213.176V36.1256H220.992L222.202 43.7202C226.457 38.2171 232.62 35.4656 240.693 35.4656C247.518 35.4657 253.001 37.5206 257.148 41.6295Z" fill="white"/>
<path d="M323.004 15.2134V92.2601H315.19L313.979 83.2347C309.283 89.6926 302.862 92.9208 294.718 92.9208C289.506 92.9208 284.865 91.7834 280.793 89.5085C276.721 87.2351 273.528 83.9328 271.218 79.6024C268.907 75.2734 267.75 70.1363 267.75 64.1932C267.75 58.5435 268.907 53.5545 271.218 49.224C273.528 44.895 276.739 41.5194 280.848 39.0979C284.957 36.6764 289.58 35.4656 294.718 35.4656C299.266 35.4656 303.154 36.291 306.384 37.9418C309.612 39.5933 312.144 41.8495 313.979 44.711V15.2134H323.004ZM305.228 82.2994C308.052 80.576 310.236 78.1545 311.778 75.0348C313.318 71.9166 314.088 68.3756 314.088 64.4133C314.088 60.3784 313.318 56.7633 311.778 53.5718C310.236 50.3795 308.052 47.9034 305.228 46.1418C302.403 44.381 299.192 43.5003 295.598 43.5003C290.02 43.5003 285.527 45.4264 282.115 49.2788C278.702 53.1312 276.996 58.1036 276.996 64.1934C276.996 70.2846 278.702 75.2549 282.115 79.1072C285.527 82.9595 290.02 84.8856 295.598 84.8856C299.192 84.8856 302.403 84.0243 305.228 82.2994Z" fill="white"/>
<path d="M331.514 49.1141C333.752 44.7851 336.889 41.4282 340.925 39.0426C344.96 36.6592 349.583 35.4657 354.794 35.4657C359.929 35.4657 364.48 36.5305 368.442 38.6572C372.405 40.7869 375.523 43.8684 377.799 47.9033C380.072 51.9397 381.283 56.6727 381.431 62.1017C381.431 62.9099 381.356 64.1932 381.21 65.954H337.624V66.7248C337.77 72.2279 339.457 76.6309 342.687 79.9325C345.915 83.2348 350.134 84.8856 355.345 84.8856C359.38 84.8856 362.81 83.8776 365.636 81.8587C368.46 79.8413 370.35 77.0351 371.305 73.4387H380.44C379.339 79.1625 376.588 83.8402 372.185 87.4725C367.782 91.1048 362.388 92.9209 356.005 92.9209C350.427 92.9209 345.548 91.7288 341.367 89.3432C337.184 86.9598 333.936 83.5834 331.625 79.2171C329.314 74.8522 328.157 69.8445 328.157 64.1933C328.157 58.4695 329.275 53.4446 331.514 49.1141ZM372.074 58.4695C371.634 53.7005 369.855 49.9941 366.736 47.3526C363.617 44.7111 359.673 43.3903 354.905 43.3903C350.647 43.3903 346.906 44.7851 343.677 47.5734C340.448 50.3623 338.614 53.9946 338.174 58.4695H372.074Z" fill="white"/>
<path d="M415.093 36.1257V44.9311H410.579C405.222 44.9311 401.388 46.73 399.077 50.3249C396.765 53.9205 395.61 58.3595 395.61 63.6426V92.2602H386.585V36.1257H394.399L395.61 44.6011C397.223 42.0336 399.314 39.9788 401.883 38.4373C404.452 36.8965 408.009 36.1258 412.56 36.1258L415.093 36.1257Z" fill="white"/>
<path d="M468.237 15.2134V92.2601H460.422L459.211 83.2347C454.514 89.6926 448.094 92.9208 439.949 92.9208C434.738 92.9208 430.098 91.7834 426.026 89.5085C421.954 87.2351 418.762 83.9328 416.451 79.6024C414.139 75.2734 412.983 70.1363 412.983 64.1932C412.983 58.5435 414.139 53.5545 416.451 49.224C418.762 44.895 421.97 41.5194 426.082 39.0979C430.19 36.6764 434.813 35.4656 439.949 35.4656C444.499 35.4656 448.387 36.291 451.617 37.9418C454.845 39.5933 457.376 41.8495 459.211 44.711V15.2134H468.237ZM450.461 82.2994C453.284 80.576 455.469 78.1545 457.009 75.0348C458.551 71.9166 459.321 68.3756 459.321 64.4133C459.321 60.3784 458.551 56.7633 457.009 53.5718C455.469 50.3795 453.284 47.9034 450.461 46.1418C447.636 44.381 444.424 43.5003 440.829 43.5003C435.253 43.5003 430.758 45.4264 427.346 49.2788C423.935 53.1311 422.229 58.1036 422.229 64.1934C422.229 70.2846 423.935 75.2549 427.346 79.1072C430.758 82.9595 435.253 84.8856 440.829 84.8856C444.424 84.8856 447.636 84.0243 450.461 82.2994Z" fill="white"/>
<path d="M486.764 89.2886C482.544 86.8671 479.26 83.4929 476.914 79.1625C474.564 74.8335 473.391 69.8445 473.391 64.1933C473.391 58.5436 474.564 53.5546 476.914 49.2241C479.26 44.8951 482.544 41.5195 486.764 39.098C490.983 36.6765 495.807 35.4657 501.238 35.4657C506.668 35.4657 511.492 36.6765 515.712 39.098C519.931 41.5195 523.213 44.8952 525.563 49.2241C527.911 53.5546 529.086 58.5436 529.086 64.1933C529.086 69.8445 527.911 74.8335 525.563 79.1625C523.213 83.493 519.931 86.8671 515.712 89.2886C511.492 91.7101 506.668 92.9209 501.238 92.9209C495.807 92.9209 490.983 91.7101 486.764 89.2886ZM510.98 82.244C513.802 80.4832 515.987 78.025 517.527 74.8694C519.069 71.7153 519.84 68.1556 519.84 64.1933C519.84 60.231 519.069 56.6728 517.527 53.5164C515.987 50.3623 513.802 47.9033 510.98 46.1418C508.154 44.381 504.906 43.5003 501.238 43.5003C497.569 43.5003 494.321 44.3811 491.497 46.1418C488.671 47.9033 486.489 50.3623 484.948 53.5164C483.408 56.6728 482.637 60.231 482.637 64.1933C482.637 68.1556 483.408 71.7153 484.948 74.8694C486.489 78.025 488.671 80.4832 491.497 82.244C494.321 84.0048 497.569 84.8855 501.238 84.8855C504.906 84.8856 508.154 84.0048 510.98 82.244Z" fill="white"/>
<path d="M587.51 36.1257V89.5086C587.51 106.459 578.227 114.934 559.663 114.934C552.398 114.934 546.473 113.283 541.888 109.981C537.3 106.678 534.641 101.982 533.908 95.8924H543.154C543.886 99.4147 545.758 102.128 548.766 104.037C551.774 105.944 555.627 106.899 560.324 106.899C572.431 106.899 578.484 100.991 578.484 89.1786V82.574C574.448 89.4727 568.029 92.9209 559.223 92.9209C554.012 92.9209 549.372 91.7835 545.3 89.5086C541.228 87.2352 538.035 83.9329 535.725 79.6025C533.412 75.2735 532.257 70.1364 532.257 64.1933C532.257 58.5436 533.412 53.5546 535.725 49.2241C538.035 44.8951 541.244 41.5195 545.355 39.098C549.463 36.6765 554.087 35.4657 559.223 35.4657C563.773 35.4657 567.661 36.3652 570.891 38.1626C574.119 39.9615 576.65 42.5103 578.484 45.8118L579.695 36.1257H587.51ZM569.735 82.2994C572.558 80.576 574.743 78.1545 576.283 75.0348C577.824 71.9166 578.595 68.3756 578.595 64.4133C578.595 60.3784 577.824 56.7633 576.283 53.5718C574.743 50.3795 572.558 47.9034 569.735 46.1418C566.91 44.381 563.698 43.5003 560.103 43.5003C554.527 43.5003 550.032 45.4264 546.62 49.2788C543.209 53.1311 541.503 58.1036 541.503 64.1934C541.503 70.2846 543.209 75.2549 546.62 79.1072C550.032 82.9595 554.527 84.8856 560.103 84.8856C563.698 84.8856 566.91 84.0243 569.735 82.2994Z" fill="white"/>
<path d="M646.139 15.2134C651.202 15.2134 655.677 16.1869 659.567 18.1303C663.455 20.0752 666.447 22.8267 668.538 26.3849C670.628 29.9454 671.675 34.109 671.675 38.8779C671.675 43.6484 670.611 47.8307 668.482 51.4256C666.354 55.0212 663.365 57.7922 659.513 59.7356C655.659 61.6805 651.202 62.6525 646.139 62.6525H626.107V92.2601H616.532V15.2134H646.139ZM626.107 53.8472H645.259C650.322 53.8472 654.356 52.4898 657.365 49.7741C660.374 47.0607 661.879 43.4284 661.879 38.878C661.879 34.329 660.393 30.7154 657.421 28.0365C654.45 25.3583 650.432 24.0188 645.369 24.0188H626.107V53.8472Z" fill="#5BC682"/>
<path d="M707.997 36.1257V44.9311H703.484C698.127 44.9311 694.293 46.73 691.982 50.3249C689.67 53.9205 688.514 58.3595 688.514 63.6426V92.2602H679.49V36.1257H687.304L688.514 44.6011C690.128 42.0336 692.218 39.9788 694.788 38.4373C697.356 36.8965 700.914 36.1258 705.465 36.1258L707.997 36.1257Z" fill="#5BC682"/>
<path d="M723.351 89.2886C719.131 86.8671 715.847 83.4929 713.501 79.1625C711.151 74.8335 709.978 69.8445 709.978 64.1933C709.978 58.5436 711.151 53.5546 713.501 49.2241C715.847 44.8951 719.131 41.5195 723.351 39.098C727.57 36.6765 732.394 35.4657 737.825 35.4657C743.255 35.4657 748.079 36.6765 752.299 39.098C756.518 41.5195 759.8 44.8952 762.15 49.2241C764.498 53.5546 765.673 58.5436 765.673 64.1933C765.673 69.8445 764.498 74.8335 762.15 79.1625C759.8 83.493 756.518 86.8671 752.299 89.2886C748.078 91.7101 743.255 92.9209 737.825 92.9209C732.394 92.9209 727.57 91.7101 723.351 89.2886ZM747.567 82.244C750.389 80.4832 752.574 78.025 754.114 74.8694C755.656 71.7153 756.427 68.1556 756.427 64.1933C756.427 60.231 755.656 56.6728 754.114 53.5164C752.574 50.3623 750.389 47.9033 747.567 46.1418C744.741 44.381 741.493 43.5003 737.825 43.5003C734.155 43.5003 730.908 44.3811 728.084 46.1418C725.258 47.9033 723.076 50.3623 721.534 53.5164C719.994 56.6728 719.224 60.231 719.224 64.1933C719.224 68.1556 719.994 71.7153 721.534 74.8694C723.076 78.025 725.258 80.4832 728.084 82.244C730.908 84.0048 734.155 84.8855 737.825 84.8855C741.493 84.8856 744.741 84.0048 747.567 82.244Z" fill="#5BC682"/>
<path d="M777.999 44.3811H767.873V36.1257H777.999V20.3865H787.024V36.1257H801.222V44.3811H787.024V77.511C787.024 79.8607 787.482 81.5287 788.401 82.5194C789.317 83.5102 790.912 84.0048 793.188 84.0048H802.984V92.2601H792.638C787.354 92.2601 783.593 91.0875 781.356 88.7378C779.117 86.3904 777.999 82.684 777.999 77.6209V44.3811Z" fill="#5BC682"/>
<path d="M818.228 89.2886C814.008 86.8671 810.724 83.4929 808.377 79.1625C806.028 74.8335 804.854 69.8445 804.854 64.1933C804.854 58.5436 806.028 53.5546 808.377 49.2241C810.724 44.8951 814.008 41.5195 818.228 39.098C822.447 36.6765 827.271 35.4657 832.702 35.4657C838.132 35.4657 842.955 36.6765 847.176 39.098C851.395 41.5195 854.677 44.8952 857.026 49.2241C859.375 53.5546 860.549 58.5436 860.549 64.1933C860.549 69.8445 859.375 74.8335 857.026 79.1625C854.677 83.493 851.395 86.8671 847.176 89.2886C842.955 91.7101 838.132 92.9209 832.702 92.9209C827.271 92.9209 822.447 91.7101 818.228 89.2886ZM842.443 82.244C845.266 80.4832 847.451 78.025 848.991 74.8694C850.533 71.7153 851.303 68.1556 851.303 64.1933C851.303 60.231 850.533 56.6728 848.991 53.5164C847.451 50.3623 845.266 47.9033 842.443 46.1418C839.618 44.381 836.37 43.5003 832.702 43.5003C829.032 43.5003 825.784 44.3811 822.96 46.1418C820.135 47.9033 817.953 50.3623 816.411 53.5164C814.871 56.6728 814.1 60.231 814.1 64.1933C814.1 68.1556 814.871 71.7153 816.411 74.8694C817.953 78.025 820.135 80.4832 822.96 82.244C825.784 84.0048 829.032 84.8855 832.702 84.8855C836.37 84.8856 839.618 84.0048 842.443 82.244Z" fill="#5BC682"/>
<path d="M911.619 87.5825C907.287 91.1422 901.784 92.9209 895.108 92.9209C889.677 92.9209 884.908 91.7101 880.8 89.2886C876.689 86.8671 873.497 83.4735 871.223 79.1071C868.948 74.7422 867.811 69.7345 867.811 64.0833C867.811 58.4336 868.968 53.4446 871.279 49.1141C873.589 44.7851 876.837 41.4282 881.02 39.0426C885.202 36.6592 890.007 35.4657 895.439 35.4657C902.042 35.4657 907.491 37.2265 911.783 40.7488C916.076 44.2711 918.772 49.1141 919.874 55.278H910.737C909.857 51.6831 908.022 48.8216 905.234 46.6926C902.444 44.5652 899.071 43.5003 895.108 43.5003C889.751 43.5003 885.404 45.4092 882.065 49.2241C878.726 53.0405 877.057 57.9935 877.057 64.0833C877.057 70.2471 878.726 75.2548 882.065 79.1071C885.404 82.9594 889.751 84.8855 895.108 84.8855C899.216 84.8855 902.664 83.8229 905.454 81.694C908.242 79.5666 910.04 76.6309 910.848 72.8886H919.874C918.699 79.1258 915.947 84.0243 911.619 87.5825Z" fill="#5BC682"/>
<path d="M939.411 89.2886C935.19 86.8671 931.907 83.4929 929.56 79.1625C927.21 74.8335 926.037 69.8445 926.037 64.1933C926.037 58.5436 927.21 53.5546 929.56 49.2241C931.907 44.8951 935.19 41.5195 939.411 39.098C943.63 36.6765 948.453 35.4657 953.885 35.4657C959.314 35.4657 964.138 36.6765 968.359 39.098C972.577 41.5195 975.86 44.8952 978.209 49.2241C980.557 53.5546 981.732 58.5436 981.732 64.1933C981.732 69.8445 980.557 74.8335 978.209 79.1625C975.86 83.493 972.577 86.8671 968.359 89.2886C964.138 91.7101 959.314 92.9209 953.885 92.9209C948.453 92.9209 943.63 91.7101 939.411 89.2886ZM963.626 82.244C966.449 80.4832 968.634 78.025 970.174 74.8694C971.715 71.7153 972.486 68.1556 972.486 64.1933C972.486 60.231 971.715 56.6728 970.174 53.5164C968.634 50.3623 966.449 47.9033 963.626 46.1418C960.8 44.381 957.553 43.5003 953.885 43.5003C950.215 43.5003 946.967 44.3811 944.143 46.1418C941.317 47.9033 939.135 50.3623 937.594 53.5164C936.054 56.6728 935.283 60.231 935.283 64.1933C935.283 68.1556 936.054 71.7153 937.594 74.8694C939.135 78.025 941.317 80.4832 944.143 82.244C946.967 84.0048 950.215 84.8855 953.885 84.8855C957.553 84.8856 960.8 84.0048 963.626 82.244Z" fill="#5BC682"/>
<path d="M990.975 15.2134H1000V92.2601H990.975V15.2134Z" fill="#5BC682"/>
</svg>
