<?xml version="1.0" encoding="UTF-8"?>
<svg id="Layer_1" data-name="Layer 1" xmlns="http://www.w3.org/2000/svg" viewBox="0 0 372.42 88.18">
  <defs>
    <style>
      .cls-1 {
        fill: #6e2af5;
      }
    </style>
  </defs>
  <path class="cls-1" d="m88.72,88.18c-1.17-1.18-2.26-2.28-3.46-3.48,10.02-10.62,14.68-23.2,13.18-37.75-1.3-12.61-6.96-23.04-16.8-31.16C63.8,1.07,37.57,1.61,20.6,17.09c-9.82,8.96-15.09,20.07-15.48,33.38-.39,13.3,4.26,24.69,13.43,34.36-1.17,1.14-2.28,2.23-3.39,3.31C3.62,77.66-3.49,58.13,1.76,38.43,7.39,17.29,25.66,1.9,47.3.18c26.32-2.09,45.38,13.92,52.74,32.31,8.16,20.37,2.44,42.3-11.33,55.69Z"/>
  <path class="cls-1" d="m80.6,80.07c-1.1-1.15-2.2-2.3-3.31-3.46,15.94-17.07,10.98-40.51-2.56-51.82-14.02-11.7-34.49-10.64-47,1.19-14.14,13.37-15.35,35.89-1.09,50.78-.97.97-1.92,1.99-2.94,2.93-.84.77-1.28-.14-1.71-.6-3.21-3.5-5.74-7.43-7.54-11.83-9.47-23.19,4.04-49.18,28.47-54.81,21.87-5.04,43.89,8.93,48.43,30.88,2.84,13.76-.74,25.87-10.13,36.3-.1.11-.2.23-.32.32-.07.06-.18.07-.3.12Z"/>
  <path class="cls-1" d="m187.01,38.35c0-3.13.06-6.46-.03-9.78-.04-1.39.37-1.91,1.79-1.8,1.51.11,3.03.06,4.55.01.95-.03,1.35.27,1.35,1.29-.03,12.33-.03,24.66,0,36.99,0,1.01-.36,1.39-1.33,1.29-.35-.04-.71-.01-1.06,0-1.81.04-3.82.48-4.04-2.59-4.36,3.37-8.97,4.19-13.92,2.81-3.11-.86-5.68-2.63-7.64-5.2-3.95-5.16-4.12-13.13-.43-18.48,1.5-2.18,3.44-3.82,5.83-4.93,2.34-1.08,4.82-1.73,7.35-1.37,2.5.35,4.93,1.13,7.59,1.77Zm.6,13.46c0-4.71-3.41-8.2-8.03-8.22-4.71-.02-8.28,3.5-8.31,8.18-.02,4.65,3.61,8.36,8.18,8.37,4.65,0,8.16-3.57,8.16-8.32Z"/>
  <path class="cls-1" d="m240.77,54.42c.3,0,.61.03.91,0,1.73-.19,2.79.08,3.54,2.13,1.4,3.78,8.12,4.46,11.12,1.38,1.92-1.97,1.5-4.86-1.11-5.99-2.06-.89-4.34-1.28-6.49-1.98-2.2-.72-4.43-1.4-6.53-2.35-6.9-3.13-6.28-13.53-.88-17.14,2.2-1.47,4.62-2.26,7.23-2.42,2.83-.17,5.65-.18,8.38.82,4.15,1.52,6.47,4.5,7.22,8.77.32,1.8.07,2.06-1.7,2.06-1.52,0-3.04-.02-4.55,0-.79.01-1.25-.12-1.49-1.06-1.18-4.63-8.38-4.46-10.5-2.06-1.37,1.55-1.15,3.75.75,4.78,1.53.83,3.27,1.27,4.94,1.83,2.67.9,5.44,1.57,8.03,2.65,7.99,3.34,7.06,14.37,1.47,18.36-5.38,3.85-15.14,3.73-20.23-.48-2.45-2.03-3.79-4.66-4.11-7.83-.12-1.13.26-1.59,1.42-1.49.85.07,1.72.01,2.58.01Z"/>
  <path class="cls-1" d="m72.55,72.01c-1.18-1.14-2.3-2.22-3.5-3.38,4.98-5.56,7.42-11.96,6.63-19.36-.68-6.4-3.54-11.76-8.55-15.85-9.46-7.73-23.01-7.21-31.84,1.2-8.21,7.81-11.01,22.41-.68,33.98-1.19,1.02-2.4,2.05-3.62,3.1-8.84-7.79-11.94-25.34-1.73-38,10.77-13.36,30.64-14.53,42.99-2.49,11.79,11.49,11.01,30.32.3,40.8Z"/>
  <path class="cls-1" d="m330.15,63.66c-8.79,4.88-15.93,4.32-21.1-1.44-4.74-5.29-5.17-13.88-.96-19.64,2.6-3.56,6.17-5.49,10.47-5.99,4.24-.5,8.09.7,11.71,3.6.09-3.37,2.3-2.85,4.24-2.83,2.06.02,2.06,0,2.06,2.12,0,8.34-.03,16.68.03,25.02.01,1.43-.36,2.1-1.86,1.86-.15-.02-.3,0-.45,0-1.89-.03-4.2.71-4.14-2.68Zm-.98-11.87c0-4.85-3.34-8.21-8.14-8.21-4.7,0-8.23,3.54-8.2,8.25.02,4.62,3.53,8.11,8.17,8.13,4.8.03,8.18-3.35,8.18-8.17Z"/>
  <path class="cls-1" d="m136.75,53.87c.02,4.18,4.12,7.29,8.28,6.53,1.84-.34,3.45-1.07,4.68-2.55.27-.32.72-.68,1.09-.69,2.36-.06,4.72-.03,7.31-.03-1.18,3.33-3.08,5.83-5.84,7.55-4.98,3.1-10.26,3.36-15.44.68-5.12-2.65-7.61-7.13-7.9-12.9-.43-8.65,5.68-14.59,12.33-15.78,9.69-1.73,18.57,6.24,17.61,16.07-.11,1.12-.72,1.14-1.53,1.14-6.27,0-12.54,0-18.82,0-.59,0-1.18,0-1.77,0Zm14.5-5.15c-.86-4.05-4.16-6.16-8.59-5.74-2.89.27-5.53,2.89-5.65,5.74h14.25Z"/>
  <path class="cls-1" d="m351.72,40.49c2.38-1.21,4.4-2.66,6.65-3.32,7.55-2.21,13.85,2.5,13.99,10.32.1,5.81.02,11.63.06,17.44,0,1.03-.3,1.46-1.39,1.41-1.57-.07-3.14-.08-4.7,0-1.11.05-1.37-.41-1.37-1.43.04-4.75.03-9.51,0-14.26,0-.9-.12-1.81-.23-2.71-.24-2.03-1.01-3.77-3.13-4.4-2.24-.67-4.42-.45-6.27,1.14-1.68,1.44-2.39,3.36-2.41,5.52-.04,4.85-.05,9.71,0,14.56.01,1.17-.29,1.65-1.54,1.58-1.61-.1-3.24-.05-4.86-.01-.87.02-1.29-.22-1.29-1.19.02-8.85.02-17.7,0-26.54,0-.91.31-1.33,1.23-1.26.05,0,.1,0,.15,0,2.75-.47,4.78.23,5.1,3.14Z"/>
  <path class="cls-1" d="m300.61,48.13c-2.37,0-4.54.05-6.7-.04-.42-.02-.93-.51-1.22-.92-2.21-3.1-5.62-4.36-9.02-3.27-3.29,1.06-5.5,4.26-5.47,7.92.03,3.71,2.33,6.86,5.74,7.88,3.33.99,6.76-.32,8.61-3.44.55-.92,1.12-1.27,2.16-1.22,1.57.08,3.14.06,4.71,0,1.16-.04,1.37.36,1.06,1.46-1.75,6.3-7.35,10.47-14.28,10.55-8.92.11-15.73-6.64-15.67-15.54.05-8.28,6.68-14.81,14.97-15.02,7.7-.19,13.39,4.56,14.98,10.8.05.18.06.38.13.84Z"/>
  <path class="cls-1" d="m202.79,46.72c0-2.68.03-5.36-.02-8.04-.02-.98.32-1.38,1.31-1.35,1.67.04,3.34.05,5.01,0,1.09-.04,1.37.43,1.36,1.45-.04,5-.03,10.01,0,15.01.02,2.8,1.37,5.07,3.62,5.76,4.29,1.32,8.26-.5,8.42-5.88.15-4.85.09-9.7,0-14.55-.02-1.42.42-1.89,1.8-1.8,1.51.1,3.03.04,4.55.02.86-.02,1.33.25,1.31,1.2-.11,5.96,0,11.93-.34,17.87-.31,5.43-5.29,10.04-10.88,10.52-2.68.23-5.35.23-7.94-.7-4.98-1.8-8.13-6.29-8.22-11.78-.04-2.58,0-5.16,0-7.73Z"/>
  <path class="cls-1" d="m64.42,63.97c-1.12-1.2-2.19-2.33-3.26-3.47,4.55-7.71,4.15-13.75-1.22-18.27-4.54-3.81-11.61-3.81-16.1,0-5.36,4.55-5.76,10.65-1.12,18.47-1.12,1.01-2.28,2.04-3.45,3.09-3.81-2.51-5.98-10.45-4.36-16.43,1.93-7.1,7.83-12.2,14.86-12.93,9.47-.98,15.77,4.53,18.39,10.77,2.64,6.3.99,14.66-3.74,18.76Z"/>
</svg>