<svg width="98" height="33" viewBox="0 0 98 33" fill="none" xmlns="http://www.w3.org/2000/svg">
<path d="M20.6438 22.0438C23.2352 15.0319 24.2894 6.70518 27.4518 3.59362C27.4518 1.49004 26.2659 0 23.9819 0C21.6979 0 20.1167 1.53386 19.0186 3.3745C18.3598 1.97211 16.6029 0.569722 13.7039 0.569722C7.73043 0.569722 2.19615 6.39841 2.19615 13.6295C2.19615 18.3187 5.57821 21.255 8.69674 21.255C11.5517 21.255 14.0114 19.239 15.8122 16.3466C15.8562 17.4861 15.2413 19.4143 14.1871 21.255C12.7816 23.7968 10.5854 26.1633 8.4332 26.1633C5.79782 26.1633 5.79782 23.3586 7.33513 23.3586C7.33513 21.8685 6.06136 21.255 4.56798 21.255C2.63537 21.255 0 22.8765 0 26.1633C0 30.1514 3.6456 33 8.34535 33C15.0656 33 18.4037 28.004 20.6438 22.0438ZM8.4332 12.8845C8.4332 9.68526 11.42 4.60159 14.8899 4.60159C15.9001 4.60159 17.2178 5.08366 17.7009 6.22311C16.6029 8.63347 13.7039 15.3825 10.3658 15.3825C9.48735 15.3825 8.4332 14.6374 8.4332 12.8845Z" fill="#AD5AFF"/>
<path d="M37.5342 4.11952C37.5342 1.92829 35.7333 0.131475 33.4933 0.131475C32.3074 0.131475 31.0775 0.525896 30.1551 1.40239C30.1551 8.19522 26.0703 10.1235 26.0703 15.3825C26.0703 18.9323 29.0131 21.255 32.7027 21.255C35.5577 21.255 38.1491 19.239 40.3013 16.4781C41.1798 19.8088 44.2544 22.0438 47.2851 22.0438C53.0829 22.0438 54.6202 15.3825 56.5089 10.6494H53.8296C52.2044 13.5857 50.5354 16.3466 48.5149 16.3466C47.3729 16.3466 46.9337 15.2948 46.9776 14.1992C47.0655 11.1315 50.184 5.65339 51.8091 3.59362C51.8091 1.35857 49.6569 0 47.5925 0C46.3627 0 45.1768 0.438247 44.3862 1.40239C43.7273 2.23506 42.4096 4.4263 41.3994 7.2749C39.3789 12.4024 36.8314 15.3825 35.1184 15.3825C34.1082 15.3825 33.4494 14.7689 33.4494 13.6295C33.4494 10.8685 37.5342 7.40637 37.5342 4.11952Z" fill="#AD5AFF"/>
<path d="M76.2539 4.33865C75.4633 2.05976 73.3111 0.569722 70.6757 0.569722C68.4796 0.569722 66.3713 1.57769 64.3948 3.11155C63.9995 1.18327 62.3304 0.131475 60.4417 0.131475C59.2558 0.131475 57.8502 0.525896 56.9718 1.40239C57.8063 7.2749 51.8767 10.7371 51.8767 16.3466C51.8767 20.2908 54.556 22.0438 56.9718 22.0438C58.4652 22.0438 59.8268 21.2988 60.4417 19.8526C59.9585 16.9602 60.4856 14.6374 61.3202 12.6215C63.1649 8.10757 66.2395 5.39044 68.0404 5.39044C69.0067 5.39044 69.6655 6.09163 69.6655 7.14343C69.6655 9.90438 65.8881 13.9801 65.8881 17.2669C65.8881 19.8526 67.6451 21.255 69.5777 21.255C70.6318 21.255 71.7299 20.8606 72.6523 19.9841C72.6523 17.0478 74.0578 14.1554 75.1998 11.3944C77.1324 7.75697 79.5482 5.39044 81.1294 5.39044C82.1396 5.39044 82.7545 6.09163 82.7545 7.14343C82.7545 9.42231 78.4501 13.6733 78.4501 20.5976C78.4501 27.9163 82.5788 32.7809 89.2112 32.9562C97.0734 33.1753 99.006 26.4701 97.5566 23.4462C92.725 25.243 86.5758 23.008 86.6637 16.5657C86.7515 11.9641 90.0018 9.15936 90.0018 5.69721C90.0018 2.76096 87.4543 0.569722 84.0722 0.569722C81.1294 0.569722 78.494 2.14741 76.2539 4.33865Z" fill="#AD5AFF"/>
</svg>
